PathFileType	4	(X/Y/Z)	traj.trc
DataRate	CameraRate	NumFrames	NumMarkers	Units	OrigDataRate	OrigDataStartFrame	OrigNumFrames
30.00	30.00	5	1	mm	30.00	1	5
Frame#	Time	wrist		
		X1	Y1	Z1

0	0.0	143.75	495.83333333333337	535000.0
1	0.25	143.75	495.83333333333337	535000.0
2	0.5	170.7763671875	506.81966145833337	478595.3125
3	0.75	245.849609375	537.3372395833334	321915.625
4	1.0	320.9228515625	567.8548177083334	165235.93749999997
